<?xml version="1.0" encoding="utf-8"?>
<!-- Generator: Adobe Illustrator 27.5.0, SVG Export Plug-In . SVG Version: 6.00 Build 0)  -->
<svg version="1.1" xmlns="http://www.w3.org/2000/svg" xmlns:xlink="http://www.w3.org/1999/xlink" x="0px" y="0px"
	 viewBox="0 0 1100 800" style="enable-background:new 0 0 1100 800;" xml:space="preserve">
<g id="background">
	<rect style="fill:#FFFFFF;" width="1100" height="800"/>
</g>
<g id="shadow">
	<g style="opacity:0.5;">
		<path style="fill:#EED5D5;" d="M496.194,628.942c-27.351,0.085-54.701,0.768-82.003,3.927c-10.294,1.191-20.373,3.81-30.69,4.866
			c-20.609,2.11-40.849,6.047-61.532,7.863c-16.655,1.462-33.38,2.325-49.987,4.18c-15.57,1.739-32.806,1.338-48.256-1.536
			c-11.438-2.127-22.928-3.325-34.173-6.742c-12.58-3.823-26.247-6.555-39.354-6.457c-18.691,0.14-36.893,0.157-54.779,6.906
			c-6.279,2.369-13.965,6.264-18.733,11.236c-10.915,11.382-12.392,39.783-1.494,51.589c18.356,19.869,57.534,27.665,83.264,28.033
			c28.195,0.403,55.585-1.773,83.821-3.053c26.237-1.189,52.409-2.881,78.69-2.822c53.676,0.122,107.359,0,160.938-3.729
			c50.339-3.503,100.804-2.301,151.253-2.301c51.733,0,103.117,0.423,154.477,7.573c22.378,3.116,45.177,4.206,67.667,6.389
			c20.142,1.955,39.498-0.038,59.56-1.845c16.846-1.517,33.582-6.017,48.886-13.623c12.115-6.021,33.711-24.726,37.427-39.097
			c10.415-40.29-146.782-39.322-170.918-39.231c-27,0.101-54.215,1.025-81.194-0.046c-11.349-0.45-22.53-2.757-33.607-5.285
			c-11.032-2.518-22.148-1.878-33.336-2.936c-46.656-4.412-93.415-3.768-140.219-3.768
			C526.672,629.034,511.433,628.895,496.194,628.942z"/>
	</g>
</g>
<g id="object">
	<g>
		<g>
			<path style="fill:#EFBFA5;" d="M260.674,567.187l9.245-3.691l9.43,1.886c0,0,1.886,10.687,0.629,10.059l-9.43-3.143l-1.886,3.772
				l-8.173-2.515L260.674,567.187z"/>
			<g>
				<polygon style="fill:#292949;" points="121.244,680.337 125.521,687.82 124.986,692.631 118.572,693.7 108.95,687.82 
					112.157,667.508 121.244,664.836 				"/>
				<path style="fill:#BABCBE;" d="M125.521,612.452c0,0-10.156,18.708,3.742,30.468c13.898,11.76,37.951,30.468,37.951,30.468
					l-45.435-10.156l-3.207,16.036c0,0,68.954,22.985,70.557,21.381c1.604-1.604,18.708-16.57,18.708-16.57l-36.882-80.713
					l-40.624,4.811L125.521,612.452z"/>
			</g>
			<g>
				<path style="fill:#474EBB;" d="M233.478,600.689c-2.426-2.596-4.722-5.3-6.831-8.13l0,0l-12.676-12.09l-16.974-37.09
					l2.722-24.046c0,0,2.775-2.883,6.227-6.345c-3.272-4.704-7.098-7.832-14.78-8.661c-32.349-3.491-30.515-1.524-41.513,11.846
					c-4.423,5.376-12.591,20.802-15.415,27.097c-3.42,7.624-6.747,15.29-9.818,23.057c-3.427,8.667-6.54,17.461-9.094,26.42
					c-0.284,0.995-1.191,3.753-2.161,7.089c-1.833,6.303-3.889,14.663-2.393,17.081c0.778,2.015,2.831,4.163,7.8,5.157
					c10.69,2.138,19.243,2.138,31.002-3.742c11.759-5.88,31.241-1.706,31.241-1.706v-0.001c3.097,0.848,6.334,1.685,9.781,2.454
					c25.063,5.59,38.017-9.76,42.082-12.547c3.554-2.437,0.8-5.838,0.8-5.838L233.478,600.689z"/>
			</g>
			<polygon style="fill:#EFBFA5;" points="205.169,414.506 193.853,404.448 191.339,396.275 193.853,396.275 195.739,397.533 
				198.254,401.305 208.312,395.018 211.456,400.047 211.456,411.363 			"/>
			<polygon style="fill:#474EBB;" points="188.824,495.602 218.999,470.456 202.026,413.878 213.342,407.591 246.66,475.485 
				203.283,530.177 			"/>
			<polygon style="fill:#292949;" points="221.666,683.544 232.425,690.717 232.425,695.648 223.011,697.442 208.217,690.269 
				209.561,683.544 			"/>
			<g>
				<path style="fill:#EFBFA5;" d="M182.97,500.597c-3.591,0.435-7.183,0.87-10.774,1.306c-0.662-2.808-1.099-5.669-1.306-8.547
					c-3.158-0.376-6.887-1.166-8.08-4.114c-0.376-0.929-0.429-1.951-0.477-2.952c-0.2-4.137-0.4-8.273-0.6-12.41
					c-0.069-1.431-0.132-2.905,0.354-4.253c0.853-2.364,3.202-3.839,5.525-4.798c5.929-2.446,12.948-2.609,18.631,0.364
					c1.513,0.791,2.952,1.827,3.863,3.271c1.405,2.226,1.352,5.038,1.254,7.668c-0.091,2.428-0.181,4.855-0.272,7.283
					c-0.104,2.792-0.436,6.014-2.757,7.57c-1.232,0.826-2.859,1.028-3.908,2.078C182.574,494.914,183.579,498.053,182.97,500.597z"
					/>
			</g>
			<path style="fill:#BABCBE;" d="M169.965,618.817l65.668-30.418l14.967,19.243l-25.657,78.575l-17.105-2.138l4.811-47.038
				c0,0-14.432,12.294-40.089,11.225c-11.76-11.76-11.76-11.225-11.76-11.225L169.965,618.817z"/>
			<polygon style="fill:#474EBB;" points="260.205,564.899 220.435,555.069 199.464,519.469 184.69,513.006 196.389,570.864 
				262.711,577.103 			"/>
			<polygon style="fill:#3B3387;" points="160.249,489.146 152.466,512.889 210.886,520.856 210.395,505.832 			"/>
			<polygon style="fill:#3B3387;" points="189.663,492.251 177.236,495.254 157.112,508.634 148.028,594.44 182.967,592.284 
				180.786,518.656 199.928,509.068 205.331,503.639 			"/>
			<polygon style="fill:#292949;" points="182.714,463.855 161.738,469.734 162.402,487.908 147.748,482.16 143.752,450.856 
				187.379,430.117 205.822,452.854 189.663,467.596 			"/>
		</g>
		<g>
			<g>
				<g>
					<path style="fill:#292949;" d="M185.362,228.041c0.938,2.727,0.088,5.682-0.937,8.296
						c-6.819,17.389-27.276,39.326-46.222,33.55c1.795-0.823,6.7-2,10.342-3.79c8.649-4.252,12.291-15.081,15.106-24.695
						c1.726-5.894-1.25-20.745,4.126-24.222C172.908,213.862,183.493,222.603,185.362,228.041z"/>
					<path style="fill:#2F3789;" d="M135.765,249.346c1.903-9.662,4.694-16.245,8.63-23.824
						c3.936-7.579,10.234-14.154,18.273-16.259c0.955-0.25,1.961-0.436,2.938-0.207c1.117,0.261,2.07,1.031,2.981,1.779
						c5.031,4.132,13.942,9.103,16.373,16.056c-14.276,2.299-27.697,10.852-36.915,22.264c-6.882,8.519-8.998,21.439-9.903,21.657
						C129.527,272.89,134.87,253.893,135.765,249.346z"/>
				</g>
				<g>
					<path style="fill:#292949;" d="M75.063,268.699c0.966,2.717,3.472,4.499,5.902,5.905c16.168,9.352,45.838,13.765,57.057-2.558
						c-1.917,0.474-6.487,2.611-10.451,3.479c-9.414,2.063-19.01-4.138-27.202-9.904c-5.022-3.535-11.948-17.005-18.319-16.374
						C75.969,249.849,73.137,263.28,75.063,268.699z"/>
					<path style="fill:#2F3789;" d="M127.131,254.461c-7.509-6.372-13.794-9.781-21.594-13.257
						c-7.801-3.476-16.824-4.694-24.423-1.332c-0.903,0.399-1.805,0.881-2.427,1.669c-0.711,0.9-0.977,2.097-1.223,3.249
						c-1.361,6.367-5.234,15.806-2.802,22.76c12.598-7.097,28.425-8.768,42.745-5.587c10.691,2.376,20.396,11.162,21.24,10.769
						C146.679,268.99,130.664,257.459,127.131,254.461z"/>
				</g>
			</g>
			<g>
				
					<rect x="78.587" y="267.204" transform="matrix(0.944 -0.33 0.33 0.944 -102.6198 72.8762)" style="fill:#D67086;" width="169.476" height="142.939"/>
				
					<rect x="49.371" y="270.197" transform="matrix(0.944 -0.33 0.33 0.944 -86.965 64.2324)" style="fill:#D67086;" width="192.647" height="36.096"/>
			</g>
			<g style="opacity:0.1;">
				<polygon points="78.474,330.865 231.641,277.316 235.89,289.469 				"/>
			</g>
			<path style="fill:#2F3789;" d="M195.438,403.158l-19.8,6.922l-47.764-136.62c-0.484-1.385,0.205-2.886,1.54-3.353l14.966-5.232
				c1.335-0.467,2.809,0.278,3.294,1.663L195.438,403.158z"/>
		</g>
		<g>
			<path style="fill:#5D66D3;" d="M442.309,271.184c-3.967-5.061-8.95-17.536,0.584-28.525c2.689-3.099,5.044-5.44,6.936-7.321
				c5.549-5.517,7.04-6.999,5.405-15.275c-1.051-5.316-0.308-9.159,2.208-11.424c3.381-3.042,8.207-1.666,8.746-1.499l-1.608,5.195
				c-0.599-0.175-2.574-0.501-3.509,0.354c-0.943,0.862-1.126,3.165-0.503,6.32c2.201,11.133-1.033,14.349-6.905,20.186
				c-1.924,1.913-4.104,4.08-6.662,7.028c-8.946,10.312-0.759,21.158-0.406,21.614L442.309,271.184z"/>
			<path style="fill:#3B3387;" d="M501.505,265.847l-5.43-0.291c0.017-0.313,0.467-7.724,5.325-11.981
				c2.493-2.184,5.61-3.147,9.271-2.86c2.784,0.218,4.823-0.22,5.742-1.233c0.963-1.062,0.681-2.727,0.678-2.743l5.333-1.064
				c0.089,0.432,0.793,4.314-1.91,7.379c-2.127,2.412-5.578,3.449-10.268,3.082c-2.171-0.17-3.895,0.33-5.262,1.529
				C501.882,260.384,501.509,265.793,501.505,265.847z"/>
			<path style="fill:#D67086;" d="M419.653,218.755l2.851-4.63c0.267,0.164,6.562,4.102,7.979,10.404
				c0.727,3.233,0.083,6.432-1.919,9.51c-1.522,2.342-2.112,4.342-1.662,5.633c0.473,1.353,2.07,1.901,2.086,1.907l-1.615,5.192
				c-0.423-0.128-4.168-1.365-5.569-5.204c-1.102-3.021-0.363-6.548,2.2-10.492c1.187-1.826,1.572-3.578,1.173-5.353
				C424.272,221.697,419.699,218.783,419.653,218.755z"/>
			<path style="fill:#5D66D3;" d="M420.044,188.226l-0.804-5.378c0.31-0.047,7.661-1.092,12.805,2.813
				c2.64,2.004,4.208,4.865,4.662,8.509c0.345,2.771,1.183,4.681,2.36,5.378c1.233,0.73,2.808,0.12,2.823,0.114l2.112,5.011
				c-0.406,0.174-4.067,1.642-7.612-0.391c-2.79-1.6-4.498-4.773-5.079-9.441c-0.269-2.161-1.104-3.749-2.553-4.849
				C425.472,187.499,420.097,188.219,420.044,188.226z"/>
			<path style="fill:#5D66D3;" d="M369.233,266.383l4.691,2.75c-0.159,0.271-3.96,6.649-10.229,8.201
				c-3.217,0.797-6.428,0.221-9.55-1.713c-2.374-1.472-4.386-2.018-5.668-1.54c-1.343,0.502-1.856,2.11-1.861,2.126l-5.226-1.502
				c0.119-0.425,1.275-4.197,5.083-5.68c2.997-1.167,6.539-0.505,10.537,1.973c1.851,1.147,3.612,1.494,5.377,1.057
				C366.392,271.065,369.205,266.43,369.233,266.383z"/>
			
				<rect x="453.774" y="256.666" transform="matrix(0.2714 -0.9625 0.9625 0.2714 86.2485 632.6986)" style="fill:#D67086;" width="14.449" height="5.438"/>
			
				<rect x="481.251" y="244.36" transform="matrix(0.8164 -0.5775 0.5775 0.8164 -52.9962 327.484)" style="fill:#5D66D3;" width="14.449" height="5.438"/>
			
				<rect x="461.123" y="351.039" transform="matrix(0.8164 -0.5775 0.5775 0.8164 -118.3035 335.4581)" style="fill:#5D66D3;" width="14.449" height="5.438"/>
			<polygon style="fill:#D67086;" points="587.401,292.572 580.881,279.621 585.881,277.208 592.401,290.16 			"/>
			
				<rect x="315.242" y="241.585" transform="matrix(0.6043 -0.7968 0.7968 0.6043 -72.421 351.7999)" style="fill:#D67086;" width="5.438" height="14.449"/>
			
				<rect x="398.508" y="231.865" transform="matrix(0.7928 -0.6095 0.6095 0.7928 -62.5875 294.0742)" style="fill:#3B3387;" width="5.438" height="14.449"/>
			
				<rect x="502.535" y="290.826" transform="matrix(0.8768 -0.4808 0.4808 0.8768 -78.3496 281.2555)" style="fill:#D67086;" width="14.449" height="5.438"/>
			<path style="fill:#D67086;" d="M500.639,222.803l-5.434-0.217c0.019-0.485,0.637-11.921,14.778-15.426
				c5.259-1.303,5.146-2.381,4.897-4.741c-0.211-2.006-0.529-5.037,2.468-7.357l3.329,4.3c-0.503,0.389-0.584,0.628-0.388,2.489
				c0.415,3.941,0.095,8.334-8.998,10.588C501.069,214.973,500.642,222.725,500.639,222.803z"/>
			<path style="fill:#3B3387;" d="M584.302,231.603l-4.849-2.461c1.342-2.665,2.038-6.046,1.402-6.821
				c-0.188-0.23-1.355-0.641-4.451,0.21c-2.179,0.599-5.311,1.169-7.362-0.781c-2.338-2.221-1.548-5.796-0.634-9.936
				c1.153-5.224,2.589-11.726-1.519-16.328c-2.196-2.461-4.555-3.679-7.21-3.725c-5.737-0.098-10.979,5.311-11.031,5.365
				l-3.945-3.743c0.278-0.293,6.89-7.178,15.035-7.06c4.211,0.062,7.982,1.926,11.208,5.542c5.96,6.678,4.042,15.369,2.772,21.121
				c-0.349,1.583-0.809,3.665-0.792,4.675c0.361-0.012,0.997-0.088,2.037-0.374c4.769-1.311,8.17-0.774,10.104,1.595
				C588.407,222.973,585.015,230.196,584.302,231.603z"/>
			<path style="fill:#3B3387;" d="M359.594,244.035c-0.134-0.235-3.249-5.83-0.682-11.214c1.913-4.012,6.284-6.611,12.993-7.723
				c2.785-0.461,4.608-1.236,5.272-2.241c0.783-1.184,0.246-3.399-0.322-5.743c-0.981-4.046-2.463-10.16,4.097-13.69
				c3.756-2.021,9.742-3.096,16.925,3.262c3.91,3.461,6.392,7.618,6.495,7.793l-4.677,2.773c-0.08-0.134-8.091-13.384-16.167-9.039
				c-2.628,1.414-2.481,3.116-1.389,7.62c0.78,3.217,1.664,6.863-0.427,10.025c-1.564,2.363-4.481,3.87-8.919,4.606
				c-4.764,0.79-7.863,2.405-8.96,4.671c-1.359,2.805,0.477,6.195,0.496,6.229L359.594,244.035z"/>
			<polygon style="fill:#3B3387;" points="326.285,396.073 364.62,391.082 393.384,355.035 403.279,364.211 373.321,407.396 
				334.225,417.063 321.377,406.368 322.177,395.936 			"/>
			<g>
				<g>
					<polygon style="fill:#2F3789;" points="269.239,690.752 267.929,695.862 276.363,703.758 282.545,700.041 278.983,693.538 
						270.55,685.642 					"/>
					<polygon style="fill:#EFBFA5;" points="293.49,532.118 289.51,547.638 295.43,603.926 269.151,688.96 278.296,693.75 
						316.597,612.646 324.376,588.542 332.147,536.2 					"/>
				</g>
				<g>
					<polygon style="fill:#EFBFA5;" points="364.77,546.723 358.918,695.5 349.633,696.422 338.621,602.523 315.166,538.177 					
						"/>
					<polygon style="fill:#2F3789;" points="349.572,695.257 350.095,700.528 360.659,704.802 365.155,699.032 359.612,694.26 					
						"/>
				</g>
				<g>
					<path style="fill:#3B3387;" d="M286.5,515.364c7.969-52.366,5.123-90.502,5.536-100.973
						c0.413-10.471,7.762-15.905,7.766-15.907c3.225-0.718,6.032-2.795,9.289-3.614c22.033-5.544,34.05,11.28,42.297,29.424
						c10.162,22.357,18.699,45.458,25.601,69.025c6.057,20.683,12.128,41.552,14.669,63.017c1.048,8.857,1.923,17.256-7.774,21.163
						c-15.452,6.226-32.816,6.09-49.137,8.087c-18.747,2.293-37.52,3.969-56.392,4.753
						C268.504,590.748,278.531,567.73,286.5,515.364z"/>
				</g>
			</g>
			<path style="fill:#FFFFFF;" d="M304.583,396.802c0,0,0.695,16.496,10.592,17.017c9.897,0.521,15.628-4.167,15.107-9.897
				c-0.521-5.73-3.352-8.366-3.352-8.366S314.828,390.204,304.583,396.802z"/>
			<polygon style="fill:#5D66D3;" points="438.83,266.032 389.143,249.352 397.464,389.255 488.517,282.712 			"/>
			<polygon style="fill:#3B3387;" points="388.547,393.257 360.085,428.466 306.433,403.589 292.954,406.531 292.378,413.279 
				294.469,430.779 362.444,455.25 378.759,447.093 400.511,398.151 			"/>
			<g>
				<path style="fill:#292949;" d="M339.659,380.48c-5.277-2.463-7.228-7.425-7.939-10.39c-0.119-0.837-0.253-1.629-0.398-2.378
					c0-0.004-0.001-0.013-0.001-0.013l-0.001,0.006c-2.034-10.431-6.411-12.509-6.411-12.509l-0.003,0.001
					c-1.541-1.259-3.348-2.191-5.282-2.658c-2.972,2.671-4.827,6.551-5.042,10.546l-0.435,0.005
					c1.821,0.044,3.614,0.461,5.284,1.177c1.275,9.009,3.216,23.346,3.286,27.533c0.105,6.25,1.582,6.366,5.784,7.736
					c2.613,0.852,5.316-0.186,6.987-1.092c0,0,0.001,0,0.001,0C341.218,397.13,347.473,384.126,339.659,380.48z"/>
				<g>
					<path style="fill:#EFBFA5;" d="M327.224,367.71c-6.603-14.383-24.781-7.098-27.145,6.465
						c-1.344,7.713,2.747,21.117,11.955,21.243c0.464,1.303,1.259,3.765,2.501,4.405c1.345,0.693,4.595-1.093,5.88-1.748
						c0.356-0.182,0.724-0.389,0.93-0.732c0.258-0.43,0.086-1.366-0.161-2.39c0.984-0.317,1.96-0.767,2.919-1.369
						c4.021-2.528,6.184-7.376,6.395-12.127C330.71,376.707,329.208,372.033,327.224,367.71z"/>
				</g>
				<path style="fill:#292949;" d="M314.923,365.178c10.374-3.74,7.407-11.854,7.407-11.854
					c-8.501-12.201-26.687-4.278-26.687-4.278s-9.497,5.227-11.29,16.557c-0.163,1.029-0.284,1.997-0.374,2.913
					c-0.398,2.874-0.772,8.985-0.547,11.975c0.029,3.654-0.219,6.416-2.898,9.845c-4.895,6.266,1.085,9.033,3.499,10.876
					c2.414,1.843-2.316,15.99,15.58,10.656c11.683-6.03,14.423-6.051,10.096-12.4l0,0c-1.846-3.067-6.063-7.249-7.974-12.689
					C298.721,378.199,304.549,368.918,314.923,365.178z"/>
			</g>
			<polygon style="fill:#EFBFA5;" points="389.861,393.795 394.529,384.556 405.405,382.925 405.405,395.976 399.268,397.643 			"/>
			<g>
				<g>
					<path style="fill:#EED5D5;" d="M313.492,346.973c0,0-9.158,15.749-29.754,23.988l-13.273-47.601L313.492,346.973z"/>
					<polygon style="fill:#353A85;" points="313.489,347.161 281.047,361.309 279.325,355.134 307.569,343.722 					"/>
					<polygon style="fill:#353A85;" points="302.208,340.781 277.852,349.852 276.32,344.358 295.779,337.252 					"/>
					<polygon style="fill:#353A85;" points="289.264,333.677 274.754,338.742 273.342,333.677 283.593,330.565 					"/>
					<polygon style="fill:#353A85;" points="278.903,327.991 272.238,329.72 270.465,323.36 					"/>
					<g>
						<g style="opacity:0.1;">
							<path d="M311.525,349.852c0,0-22.041,13.779-34.297-2.237l6.51,23.346C283.738,370.961,300.408,365.359,311.525,349.852z"/>
						</g>
					</g>
				</g>
				<path style="fill:#D67086;" d="M262.327,328.126l6.053-2.124l-3.303,4.723l3.357,1.921l2.677-5.853l0.773,6.333l3.781-0.814
					l-1.894-6.064l4.402,2.256l1.445-3.588l-5.132-1.544l3.778-2.712l-2.531-2.925l-3.869,4.015l0.519-5.712h-3.868l0.501,5.515
					l-4.111-3.711l-2.321,3.095l4.196,2.589l-5.399,0.85L262.327,328.126z"/>
			</g>
			<polygon style="fill:#D67086;" points="390.302,273.392 423.931,261.03 452.109,270.49 391.864,295.092 			"/>
			<polygon style="fill:#D67086;" points="392.71,307.345 469.952,276.48 488.553,282.782 393.763,322.212 			"/>
			<polygon style="fill:#D67086;" points="394.285,335.806 468.347,306.313 436.079,344.07 395.94,361.491 			"/>
			
				<rect x="316.013" y="305.139" transform="matrix(0.9976 -0.0697 0.0697 0.9976 -20.6618 23.2665)" style="fill:#D67086;" width="14.449" height="5.438"/>
			<polygon style="fill:#3B3387;" points="392.106,299.163 457.976,272.459 452.256,270.636 391.841,295.09 			"/>
			<polygon style="fill:#3B3387;" points="393.763,322.212 488.553,282.782 481.99,290.349 394.148,327.636 			"/>
			<path style="fill:#3B3387;" d="M395.94,361.491l40.139-17.42c0,0-6.304,7.709-6.379,7.464
				c-0.075-0.245-33.364,14.654-33.364,14.654L395.94,361.491z"/>
			<g style="opacity:0.1;">
				<path d="M488.553,282.782c0,0-44.699,47.32-94.946,41.618l3.802,64.609L488.553,282.782z"/>
			</g>
		</g>
		<polygon style="fill:#5D66D3;" points="363.305,355.356 363.461,345.656 372.257,343.771 376.028,350.683 373.514,353.196 
			369.744,348.17 368.334,352.566 368.25,359.936 		"/>
		<g>
			<g>
				<g>
					<path style="fill:#292949;" d="M816.497,339.339c0,0-6.518,3.276-7.634,20.452c-1.116,17.176-5.106,27.72-5.106,27.72
						s5.125,3.868,9.854,2.202c4.729-1.666,6.4-1.837,6.352-8.927c-0.049-7.09,4.026-39.941,4.026-39.941L816.497,339.339z"/>
				</g>
			</g>
			<g>
				<g>
					<path style="fill:#292949;" d="M828.912,348.002c-6.686,0.318-12.951,5.049-15.095,11.4c-2.725-3.982-3.38-9.307-1.703-13.835
						c1.678-4.528,5.644-8.139,10.304-9.381c3.442,2.949,5.649,7.299,5.999,11.823L828.912,348.002z"/>
				</g>
			</g>
			<g>
				<polygon style="fill:#D67086;" points="837.01,388.623 857.884,396.28 892.359,423.498 906.63,372.897 925.548,375.833 
					914.921,437.464 895.539,455.805 837.798,425.753 				"/>
			</g>
			<g>
				<g>
					<g>
						<g>
							<polygon style="fill:#292949;" points="863.839,698.894 864.513,704.287 854.867,711.259 849.032,706.656 853.518,700.473 
								863.164,693.501 							"/>
						</g>
					</g>
					<g>
						<g>
							<polygon style="fill:#474EBB;" points="859.69,533.618 861.739,549.996 848.366,606.752 864.162,697.073 854.193,700.779 
								825.6,612.91 820.786,587.265 819.652,532.76 							"/>
						</g>
					</g>
				</g>
				<g>
					<g>
						<g>
							<polygon style="fill:#474EBB;" points="782.82,553.742 807.548,705.129 817.158,704.902 816.588,607.502 832.463,538.754 
															"/>
						</g>
					</g>
					<g>
						<g>
							<polygon style="fill:#292949;" points="817.074,703.703 817.203,709.159 806.94,714.86 801.615,709.527 806.682,703.948 
															"/>
						</g>
					</g>
				</g>
				<g>
					<g>
						<g>
							<path style="fill:#D67086;" d="M858.684,513.489c-9.512-55.059-7.532-95.367-8.218-106.406
								c-0.686-11.039-8.391-16.594-8.391-16.594c-3.343-0.681-6.286-2.804-9.661-3.59c-22.83-5.313-34.788,12.73-42.831,32.076
								c-9.909,23.836-18.126,48.419-24.648,73.453c-5.723,21.971-11.456,44.139-13.537,66.849
								c-0.859,9.371-1.55,18.254,8.534,22.141c16.07,6.193,33.95,5.628,50.81,7.337c19.365,1.964,38.742,3.275,58.199,3.643
								C879.097,592.591,868.196,568.548,858.684,513.489z"/>
						</g>
					</g>
				</g>
			</g>
			<g>
				<polygon style="fill:#EFBFA5;" points="921.855,375.26 930.162,366.541 926.91,351.635 918.698,351.829 916.591,364.928 
					912.483,367.531 912.632,373.828 				"/>
			</g>
			<g>
				<polygon style="fill:#D67086;" points="821.394,386.026 799.748,390.404 756.324,434.444 704.593,433.733 702.071,449.742 
					762.702,458.942 811.703,425.886 				"/>
			</g>
			<g>
				<polygon style="fill:#F7F7F7;" points="816.063,387.306 813.45,446.159 842.255,389.592 833.394,386.662 827.074,384.927 				
					"/>
			</g>
			<g>
				<polygon style="fill:#E0CBAF;" points="704.111,437.725 694.463,432.039 682.327,435.379 682.482,441.919 702.921,445.277 				
					"/>
			</g>
			<g>
				<g>
					<path style="fill:#EFBFA5;" d="M814.207,353.592c7.102-16.486,27.91-8.713,30.954,6.604c1.731,8.71-2.549,24.018-12.987,24.408
						c-0.491,1.49-1.327,4.303-2.718,5.062c-1.506,0.822-5.24-1.117-6.714-1.825c-0.409-0.196-0.832-0.421-1.074-0.805
						c-0.304-0.48-0.134-1.547,0.119-2.714c-1.124-0.333-2.244-0.817-3.346-1.474c-4.627-2.759-7.209-8.198-7.577-13.579
						C810.495,363.887,812.073,358.547,814.207,353.592z"/>
				</g>
			</g>
			<g>
				<g>
					<path style="fill:#292949;" d="M822.841,336.233c0,0-4.161,8.872,7.188,14.131c11.349,5.259,17.009,16.326,12.749,25.72
						c-4.261,9.394-14.7,14.684-10.612,18.321c4.088,3.636,21.783,4.868,21.783,4.868s18.139-32.43,7.498-50.6
						C850.805,330.502,830.694,325.463,822.841,336.233z"/>
				</g>
			</g>
		</g>
		<path style="fill:#2F3789;" d="M711.437,374.553c-0.683-0.147-13.683,3.103-13.683,3.103l-33.584,25.459h-46.043l-2.167,13
			l55.793,10.834L711.437,374.553z"/>
		<g>
			<g>
				<polygon style="fill:#292949;" points="642.716,502.377 633.756,585.456 639.117,694.2 651.169,695.359 668.295,597.142 
					694.302,499.779 				"/>
			</g>
			<polygon style="fill:#2F3789;" points="735.752,695.6 726.575,705.72 729.829,710.545 748.386,703.924 747.107,694.118 			"/>
			<polygon style="fill:#292949;" points="691.414,539.583 710.471,618.754 732.236,697.309 748.282,694.434 736.859,611.486 
				736.529,533.213 712.315,525.559 			"/>
			<path style="fill:#283177;" d="M713.86,373.474c0,0-22.743,7.991-45.655,46.694c-23.331,39.412-35.637,96.219-35.637,96.219
				s106.199,46.669,108.549,27.615c0,0,41.196-148.302-7.1-164.346C731.821,378.928,715.301,372.85,713.86,373.474z"/>
			<path style="fill:#FFFFFF;" d="M719.642,374.553c-13.5,18.297-26.737,40.258-40.441,58.404
				c-8.12,10.753-11.335,23.307-15.286,35.941c-3.928,12.561-7.855,25.121-11.783,37.682c-1.659,5.307-3.319,10.614-4.978,15.921
				l45.136,16.527c1.211-16.107,2.025-32.247,3.535-48.33c1.393-14.833,2.052-31.714,8.299-45.45
				c3.041-6.686,6.184-13.341,9.259-20.017c5.642-12.249,10.027-25.132,15.777-37.331c0.402-0.853,1.316-8.626,1.257-9.596
				L719.642,374.553z"/>
			<g>
				<path style="fill:#B97262;" d="M718.539,377.239c3.724,0.608,7.448,1.216,11.173,1.823c0.811-2.898,1.389-5.861,1.729-8.851
					c3.308-0.257,7.227-0.92,8.598-3.941c0.432-0.952,0.531-2.015,0.624-3.056c0.386-4.303,0.772-8.605,1.158-12.908
					c0.133-1.488,0.262-3.022-0.186-4.448c-0.787-2.501-3.172-4.139-5.553-5.238c-6.075-2.804-13.383-3.275-19.434-0.421
					c-1.61,0.76-3.155,1.778-4.166,3.243c-1.56,2.259-1.626,5.193-1.636,7.938c-0.01,2.534-0.019,5.068-0.029,7.602
					c-0.011,2.915,0.196,6.286,2.548,8.008c1.249,0.914,2.936,1.194,3.984,2.333C719.195,371.333,718.013,374.561,718.539,377.239z"
					/>
				<polygon style="fill:#292949;" points="705.607,344.733 711.028,359.663 711.2,346.595 				"/>
				<path style="fill:#292949;" d="M693.983,326.7c0.678-2.84,1.831-5.59,3.077-8.013c2.141-4.164,7.884-4.768,12.482-3.884
					c9.931,1.909,20.514-0.015,29.132,5.922c4.926,3.394,12.112,5.801,16.309,9.858c1.752,1.694,2.917,3.921,3.67,6.239
					c2.608,8.031,0.114,17.481-6.117,23.18c-1.398,1.279-2.955,2.373-4.554,3.388c-3.311,2.101-7.301,4.721-11.109,4.812
					c0.759-3.183,6.295-12.381,4.559-15.619c-2.756-5.138-11.848-6.027-16.896-6.289c-5.507-0.286-11.137,2.166-16.515,1.577
					c-3.87-0.424-8.129-3.513-10.779-6.278C693.089,337.259,692.759,331.832,693.983,326.7z"/>
			</g>
			<polygon style="fill:#2F3789;" points="638.999,693.953 627.875,700.526 629.291,705.466 648.348,703.569 649.377,695.187 			"/>
		</g>
		<g>
			<g>
				<path style="fill:#EED5D5;" d="M672.105,553.212l-242.962,19.087c-11.383,0.894-21.336-7.609-22.23-18.992l-10.908-138.846
					l284.184-22.325l10.908,138.846C691.99,542.365,683.488,552.318,672.105,553.212z"/>
				<path style="opacity:0.1;fill:#1E1E1E;" d="M427.256,572.448l247.339-19.431c10.008-0.786,17.483-9.536,16.697-19.544
					l-8.353-106.322C682.939,427.151,674.595,553.017,427.256,572.448z"/>
				
					<rect x="398.734" y="434.983" transform="matrix(0.9969 -0.0783 0.0783 0.9969 -33.0806 43.7534)" style="fill:#E0BDBD;" width="285.059" height="17.267"/>
				
					<rect x="406.042" y="527.999" transform="matrix(0.9969 -0.0783 0.0783 0.9969 -40.3431 44.6114)" style="fill:#E0BDBD;" width="285.059" height="17.267"/>
				
					<rect x="402.341" y="468.164" transform="matrix(0.9969 -0.0783 0.0783 0.9969 -36.6647 44.1768)" style="fill:#D67086;" width="285.059" height="42.713"/>
				<path style="fill:#D67086;" d="M690.635,416.772c-0.503,2.102-1.628,4.078-3.826,5.876c-2.193,1.795-4.914,2.883-7.738,3.105
					c-2.019,0.159-4.064-0.123-5.962-0.83c-2.179-0.813-4.238-2.19-5.706-4.006c-1.267-1.567-2.117-3.431-3.463-4.938
					c-0.267-0.299-0.548-0.586-0.842-0.86c-1.102-1.026-2.392-1.852-3.805-2.379c-1.561-0.581-3.24-0.779-4.897-0.649
					c-2.266,0.178-4.435,1.082-6.168,2.55c-1.849,1.565-2.858,3.684-3.801,5.86c-0.959,2.212-2.25,4.262-4.133,5.802
					c-2.193,1.794-4.914,2.883-7.738,3.104c-5.732,0.45-10.927-2.629-13.447-7.412c0,0-3.176-6.883-11.028-6.266
					c-2.266,0.178-4.435,1.083-6.169,2.55c-1.848,1.565-2.858,3.684-3.801,5.86c-0.959,2.212-2.25,4.262-4.133,5.802
					c-2.193,1.795-4.914,2.883-7.738,3.104c-5.886,0.462-10.739-3.104-13.757-7.876c-1.587-2.51-3.828-4.603-6.737-5.427
					c-1.302-0.369-2.667-0.477-4.014-0.371c-2.266,0.178-4.435,1.082-6.168,2.55c-1.848,1.565-2.858,3.684-3.801,5.86
					c-0.959,2.212-2.25,4.262-4.133,5.802c-2.193,1.794-4.914,2.883-7.738,3.104c-5.732,0.45-10.927-2.629-13.447-7.412
					c0,0-3.177-6.883-11.028-6.266c-2.266,0.178-4.435,1.083-6.169,2.55c-1.848,1.565-2.858,3.684-3.801,5.86
					c-0.959,2.212-2.25,4.262-4.133,5.803c-2.193,1.794-4.914,2.883-7.738,3.104c-2.019,0.159-4.064-0.123-5.962-0.83
					c-2.179-0.813-4.238-2.189-5.706-4.006c-1.267-1.567-2.117-3.431-3.463-4.939c-0.267-0.299-0.548-0.586-0.842-0.86
					c-1.102-1.026-2.391-1.852-3.805-2.379c-1.561-0.581-3.24-0.779-4.897-0.649c-2.266,0.178-4.435,1.082-6.168,2.55
					c-1.849,1.565-2.858,3.684-3.801,5.86c-0.959,2.212-2.251,4.262-4.133,5.803c-2.193,1.794-4.914,2.883-7.738,3.104
					c-5.732,0.45-10.927-2.629-13.447-7.412c0,0-3.176-6.883-11.028-6.266c-2.266,0.178-4.435,1.082-6.168,2.55
					c-1.849,1.564-2.858,3.684-3.801,5.86c-0.959,2.212-2.251,4.262-4.133,5.802c-2.193,1.794-4.914,2.883-7.738,3.104
					c-3.326,0.261-7.282-0.98-9.999-2.87c-3.425-2.383-3.51-5.103-3.794-8.935c-0.458-6.186-0.971-12.367-1.457-18.551
					c-0.786-10.007,6.689-18.758,16.697-19.544l267.28-20.997c9.983-0.784,18.72,6.654,19.539,16.634
					c0.274,3.328,0.548,6.656,0.822,9.985C690.217,408.041,691.623,412.648,690.635,416.772z"/>
				<path style="opacity:0.1;fill:#1E1E1E;" d="M684.032,441.06l-1.093-13.909c0,0-0.361,5.445-3.158,14.243L684.032,441.06z"/>
				<path style="opacity:0.1;fill:#1E1E1E;" d="M565.449,543.967l125.875-9.889c-0.009-0.202-0.016-0.403-0.032-0.605l-1.305-16.61
					l-81.604,6.411C596.175,530.602,581.971,537.609,565.449,543.967z"/>
				<path style="opacity:0.1;fill:#1E1E1E;" d="M635.73,503.805l52.905-4.156l-3.345-42.582l-12.388,0.973
					C666.098,471.427,654.721,487.703,635.73,503.805z"/>
			</g>
			<g>
				<path style="fill:#3B3387;" d="M522.912,387.979l-3.076-39.16c0,0-1.577-11.425,9.874-12.664
					c11.452-1.239,7.837-4.012,12.252-4.02c4.415-0.007,6.098,12.768,6.496,17.832c0.398,5.064-3.938,6.084-6.096,4.555
					c0,0-1.092-0.933-0.774,3.118c0.318,4.051,2.254,28.695,2.254,28.695L522.912,387.979z"/>
				<path style="fill:#D67086;" d="M527.843,332.978c0,0-10.393,0.816-11.322-11.01c-0.957-12.185,18.275-19.826,20.909-27.605
					C540.065,286.584,557.427,333.178,527.843,332.978z"/>
				<g>
					<g>
						<polygon style="fill:#5D66D3;" points="542.876,376.507 522.905,387.98 543.649,386.35 						"/>
					</g>
				</g>
				<polygon style="fill:#5D66D3;" points="521.57,368.277 541.55,356.91 542.315,366.648 522.335,378.014 				"/>
				<g>
					<path style="fill:none;" d="M540.257,340.452l0.06,0.768C540.31,340.932,540.291,340.672,540.257,340.452z"/>
					<path style="fill:#5D66D3;" d="M540.257,340.452c-0.159-1.008-0.679-1.619-1.264-1.99l-18.919,10.763l0.765,9.737
						l19.309-10.985c-0.094-2.553,0.214-5.145,0.17-6.758L540.257,340.452z"/>
				</g>
				<path style="opacity:0.5;fill:#1E1E1E;" d="M547.073,348.596c0,0-0.091,4.267-4.748,4.633c0,0,2.216,1.104,3.843,0.124
					C548.29,352.075,547.563,349.409,547.073,348.596z"/>
				<path style="fill:#EED5D5;" d="M527.472,332.245c0,0-4.466-2.631-1.902-7.944c2.4-4.972,10.632-11.059,10.632-11.059
					S538.032,336.527,527.472,332.245z"/>
				<path style="opacity:0.2;fill:#1E1E1E;" d="M541.351,357.139c0.118-0.72-3.309,22.163-18.446,30.841
					c20.74-1.629,20.74-1.629,20.74-1.629L541.351,357.139z"/>
			</g>
		</g>
		<path style="fill:#2F3789;" d="M742.171,384.156c0,0-9.937,3.452-10.656,5.247c-0.719,1.795-34.303,54.338-34.303,54.338
			l-69.343,16.682l3.259,15.819l63.918-7.042l23.292-1.625l37.376-54.168l-1.241-19.056L742.171,384.156z"/>
		<polygon style="fill:#B97262;" points="628.405,463.512 605.668,465.408 609.785,470.267 630.586,474.075 		"/>
		<g>
			<g>
				<path style="fill:#EED5D5;" d="M724.291,316.225c0,0,10.838,18.639,35.214,28.389l15.709-56.335L724.291,316.225z"/>
				<polygon style="fill:#353A85;" points="724.296,316.447 762.69,333.191 764.728,325.883 731.302,312.377 				"/>
				<polygon style="fill:#353A85;" points="737.646,308.896 766.471,319.632 768.284,313.13 745.255,304.72 				"/>
				<polygon style="fill:#353A85;" points="752.965,300.489 770.138,306.483 771.809,300.489 759.676,296.806 				"/>
				<polygon style="fill:#353A85;" points="765.227,293.76 773.115,295.806 775.214,288.279 				"/>
				<g style="opacity:0.1;">
					<path d="M726.62,319.632c0,0,26.086,16.307,40.59-2.648l-7.704,27.63C759.505,344.614,739.777,337.984,726.62,319.632z"/>
				</g>
			</g>
			<path style="fill:#D67086;" d="M785.963,289.481l-6.389-1.006l4.966-3.064l-2.747-3.662l-4.866,4.391l0.594-6.527h-4.578
				l0.615,6.76l-4.579-4.752l-2.995,3.462l4.471,3.209l-6.074,1.827l1.71,4.246l5.21-2.67l-2.242,7.177l4.475,0.964l0.915-7.496
				l3.168,6.928l3.973-2.273l-3.909-5.589l7.163,2.514L785.963,289.481z"/>
		</g>
		<g>
			<g>
				<path style="fill:#EED5D5;" d="M833.375,333.652c0,0,9.012,15.498,29.279,23.605l13.061-46.841L833.375,333.652z"/>
				<polygon style="fill:#353A85;" points="833.379,333.836 865.302,347.759 866.997,341.682 839.204,330.453 				"/>
				<polygon style="fill:#353A85;" points="844.479,327.558 868.446,336.485 869.954,331.079 850.805,324.086 				"/>
				<polygon style="fill:#353A85;" points="857.216,320.568 871.495,325.552 872.885,320.568 862.797,317.505 				"/>
				<polygon style="fill:#353A85;" points="867.412,314.973 873.97,316.674 875.715,310.416 				"/>
				<g style="opacity:0.1;">
					<path d="M835.311,336.485c0,0,21.69,13.559,33.749-2.201l-6.406,22.973C862.654,357.257,846.25,351.744,835.311,336.485z"/>
				</g>
			</g>
			<path style="fill:#D67086;" d="M884.653,311.415l-5.313-0.836l4.129-2.548l-2.284-3.045l-4.046,3.651l0.493-5.427h-3.806
				l0.511,5.621l-3.807-3.951l-2.49,2.878l3.718,2.668l-5.05,1.519l1.422,3.531l4.332-2.22l-1.864,5.967l3.721,0.801l0.761-6.232
				l2.634,5.76l3.304-1.89l-3.25-4.647l5.956,2.09L884.653,311.415z"/>
		</g>
		<g>
			
				<ellipse transform="matrix(0.5484 -0.8362 0.8362 0.5484 270.2421 954.3917)" style="fill:#5D66D3;" cx="1018.692" cy="227.007" rx="50.923" ry="44.418"/>
			
				<ellipse transform="matrix(0.4167 -0.909 0.909 0.4167 349.3031 982.1941)" style="fill:#D67086;" cx="940.015" cy="218.907" rx="50.923" ry="44.418"/>
			
				<ellipse transform="matrix(0.937 -0.3492 0.3492 0.937 -52.656 376.7917)" style="fill:#EED5D5;" cx="1018.623" cy="334.426" rx="50.923" ry="44.418"/>
			<path style="fill:#D67086;" d="M914.089,262.635c0,0-6.19,4.542-6.376,6.251c-0.185,1.709,2.327,4.057,2.141,5.766
				c-0.186,1.709,5.086-0.659,5.086-0.659l2.189-9.559L914.089,262.635z"/>
			<path style="fill:#5D66D3;" d="M987.416,267.127c0,0-7.898,2.979-7.095,5.141c0.803,2.162,4.571,5.684,5.786,5.643
				c1.215-0.041,2.69-9.7,2.69-9.7L987.416,267.127z"/>
			<path style="fill:#EED5D5;" d="M968.473,340.212c0,0-7.169-2.734-7.816-0.094c-0.647,2.64-1.025,6.466,1.691,6.348
				c2.716-0.118,6.263-4.259,6.263-4.259L968.473,340.212z"/>
			<path style="opacity:0.1;" d="M972.953,338.822c-1.486-1.812-2.872-3.673-4.169-5.572c-0.812,6.317-0.186,12.769,2.122,18.96
				c8.567,22.987,36.876,33.659,63.229,23.837c6.81-2.538,12.814-6.203,17.84-10.629
				C1023.65,372.172,992.662,362.85,972.953,338.822z"/>
			<path style="opacity:0.1;" d="M977.302,254.606c3.111,5.981,7.622,11.153,13.464,14.985
				c20.514,13.452,49.646,5.292,65.069-18.226c3.303-5.038,5.707-10.371,7.248-15.775
				C1041.539,258.302,1007.681,266.596,977.302,254.606z"/>
			<path style="opacity:0.1;" d="M984.391,202.424c-1.092,3.866-2.494,7.699-4.22,11.465
				c-13.014,28.389-40.819,45.313-70.088,45.827c2.611,2.168,5.52,4.018,8.712,5.482c22.3,10.223,49.878-2.216,61.598-27.782
				C985.733,225.766,986.857,213.401,984.391,202.424z"/>
			<path style="opacity:0.3;fill:#FFFFFF;" d="M961.438,180.547c1.202,0.472,2.369,0.998,3.503,1.57
				c-2.805-2.48-6.039-4.496-9.659-5.917c-17.675-6.935-38.251,2.742-47.769,21.769C920.943,180.796,942.508,173.12,961.438,180.547
				z"/>
			<path style="opacity:0.3;fill:#FFFFFF;" d="M1043.25,189.942c1.202,0.472,2.369,0.998,3.503,1.57
				c-2.806-2.48-6.039-4.496-9.659-5.917c-17.675-6.935-38.251,2.742-47.769,21.769
				C1002.755,190.191,1024.321,182.515,1043.25,189.942z"/>
			<path style="opacity:0.3;fill:#FFFFFF;" d="M1059.451,318.898c0.667,1.106,1.272,2.234,1.823,3.378
				c-0.716-3.676-2.054-7.244-4.062-10.574c-9.801-16.262-32.016-21.11-51.15-11.81
				C1027.173,294.445,1048.955,301.483,1059.451,318.898z"/>
			<path style="fill:#3B3387;" d="M898.537,465.594c-0.197,0-0.388-0.102-0.493-0.285c-0.156-0.272-0.062-0.619,0.21-0.775
				c0.011-0.007,1.338-0.798,1.731-2.375c0.307-1.231-0.017-2.633-0.964-4.166c-3.029-4.908-5.707-11.766,0.524-21.303
				c0.372-0.57,0.807-1.222,1.294-1.952c7.239-10.852,44.617-66.073,16.775-65.782c-3.469,0.036-4.562-104.186-1.092-104.222
				l-2.722-1.611c-0.27-0.16-0.359-0.508-0.2-0.777c0.16-0.27,0.508-0.359,0.778-0.199l3.041,1.799
				c0.194,0.115,0.302,0.334,0.274,0.558c-0.094,0.761-9.285,76.4,0.986,104.057c9.895,26.645-9.568,55.823-16.895,66.807
				c-0.485,0.726-0.918,1.376-1.288,1.943c-5.848,8.951-3.539,15.177-0.508,20.087c1.117,1.811,1.486,3.512,1.094,5.056
				c-0.519,2.045-2.192,3.024-2.263,3.065C898.73,465.57,898.632,465.594,898.537,465.594z"/>
			<path style="fill:#3B3387;" d="M888.323,451.343c-0.291,0-0.538-0.222-0.565-0.517c-0.439-4.897,6.496-11.396,14.525-18.922
				c6.692-6.272,14.277-13.381,17.556-19.93c6.528-13.035,0.989-29.669,0.367-31.438c-0.317-0.611-0.528-2.777-1.131-10.553
				c-0.004-0.055,0-0.111,0.012-0.165c9.165-41.696,63.253-96.028,68.852-101.561l-0.873-0.685c-0.247-0.194-0.29-0.55-0.096-0.797
				c0.194-0.247,0.55-0.29,0.797-0.096l1.381,1.084c0.129,0.101,0.208,0.253,0.216,0.417c0.009,0.164-0.054,0.323-0.172,0.437
				c-0.593,0.575-59.379,57.946-68.979,101.363c0.582,7.5,0.838,9.397,0.932,9.875c0.028,0.039,0.052,0.083,0.069,0.13
				c0.068,0.181,6.733,18.334-0.36,32.497c-3.37,6.73-10.703,13.603-17.795,20.249c-7.488,7.018-14.56,13.646-14.171,17.992
				c0.028,0.312-0.202,0.588-0.514,0.616C888.357,451.343,888.34,451.343,888.323,451.343z"/>
			<path style="fill:#3B3387;" d="M913.259,476.53c-0.194,0-0.383-0.1-0.489-0.279c-6.041-10.236-1.727-17.567,5.419-29.714
				c2.268-3.855,4.839-8.225,7.479-13.356c11.592-22.527,3.707-37.707-0.222-43.189c-5.18-7.228-6.812-18.246-6.609-20.12
				c0.013-0.12,0.064-0.233,0.146-0.322c10.743-11.747,47.487-29.03,49.045-29.76c0.162-0.076,0.349-0.071,0.507,0.012
				c0.157,0.083,0.266,0.236,0.294,0.412l0.309,1.936c0.049,0.31-0.161,0.6-0.471,0.65c-0.312,0.048-0.601-0.161-0.65-0.471
				l-0.19-1.188c-5.151,2.456-37.91,18.314-47.874,29.03c-0.074,2.182,1.638,12.495,6.415,19.159
				c4.05,5.651,12.186,21.286,0.308,44.369c-2.655,5.16-5.235,9.544-7.51,13.412c-7.171,12.188-11.121,18.902-5.42,28.562
				c0.159,0.27,0.07,0.618-0.2,0.777C913.457,476.504,913.357,476.53,913.259,476.53z"/>
		</g>
	</g>
</g>
</svg>
